
        <svg xmlns="http://www.w3.org/2000/svg" xmlns:xlink="http://www.w3.org/1999/xlink" version="1.1" width="100%" 
        height="100%" viewBox="0 0 3172.9252546571206 1516.5176764270545">
			
			<g transform="scale(8.646262732856012) translate(10, 10)">
				<defs id="SvgjsDefs1205"></defs><g id="SvgjsG1206" featureKey="5TMTKC-0" transform="matrix(1.7197540429441596,0,0,1.7197540429441596,-43.36928627093678,-9.700645916709615)" fill="#111111"><path xmlns="http://www.w3.org/2000/svg" d="M71.36,13.87c-1.72-2.6-5.55-3.06-7.11-3.14c-0.69-1.27-2.77-3.84-8.61-4.88c-4.09-0.72-7.45,0.54-9.73,1.92  c-1.06-0.84-3.37-1.58-8.35-0.27c-3.52,0.92-5.33,2.76-6.27,4.52c-4.06,0.73-6.01,3.27-6.07,5.42c-0.03,1.07,0.34,2,1.06,2.71  c0.58,0.56,1.39,0.95,2.24,1.09l5.62,72.08c0.11,1.4,1.3,2.68,2.71,2.68h26.09c1.4,0,2.6-1.28,2.71-2.68l5.67-72.69  C72.49,17.93,72.51,15.59,71.36,13.87z M63.65,93.17C63.62,93.54,63.31,94,62.94,94H36.85c-0.38,0-0.69-0.47-0.72-0.84l-0.39-5.08  c4.57,1.41,9.32,2.09,14.15,2.09s9.58-0.75,14.15-2.16L63.65,93.17z M68.57,30H31.21l-0.68-9h5.42c0.63,0,1.31,1.06,1.72,1.54  c1.13,1.33,2.67,3.17,5.02,3.17c2.66,0,4.58-1.56,6.12-2.82c1.04-0.85,2.04-1.89,2.94-1.89c4.37,0,17.5,0,17.5,0L68.57,30z   M69.66,19H51.75c-1.44,0-2.93,1.26-4.21,2.31c-1.43,1.17-2.9,2.4-4.85,2.4c-1.42,0-2.52-1.29-3.5-2.43  c-0.9-1.06-1.81-2.28-3.24-2.28h-6.5c-0.01,0-1.37,0.07-1.77-0.32c-0.33-0.32-0.48-0.68-0.46-1.18c0.02-0.86,0.78-2.46,3.26-3.25  c-0.23,1.14-0.17,1.895-0.17,1.915c0.05,0.52,0.49,0.835,1,0.835h0.14c0.55,0,1-0.485,0.95-1.035c-0.02-0.2-0.34-4.938,5.85-6.568  c3.23-0.84,4.98-0.694,5.89-0.424c-0.91,0.72-1.43,1.298-1.5,1.368c-0.37,0.42-0.33,1.054,0.08,1.424  c0.41,0.36,1.04,0.332,1.41-0.078c0.05-0.05,4.58-5.029,11.16-3.869c6.36,1.13,7.33,4.14,7.34,4.15c0.11,0.45,0.57,0.77,0.99,0.75  c1.28-0.03,4.8,0.18,6.08,2.1C70.39,15.86,70.37,17,69.66,19z M47.324,15.897c-0.55-0.088-1.06,0.28-1.148,0.825  c-0.408,2.489-2.396,3.153-2.498,3.185c-0.525,0.159-0.825,0.713-0.669,1.24c0.128,0.435,0.526,0.717,0.959,0.717  c0.094,0,0.188-0.014,0.283-0.042c0.134-0.04,3.28-1.01,3.898-4.778C48.238,16.5,47.869,15.986,47.324,15.897z"></path></g><g id="SvgjsG1207" featureKey="sloganFeature-0" transform="matrix(1.055016798851017,0,0,1.055016798851017,101,85.87261670751047)" fill="#111111"><path d="M0 20 l0 -15 l7.36 0 l0 1.16 l-6.32 0 l0 5.7 l6.26 0 l0 0.92 l-6.26 0 l0 6.06 l6.46 0 l0 1.16 l-7.5 0 z M16.42 20 l-1.1 -4.42 l-4.88 0 l-1.1 4.42 l-1 0 l4.14 -15 l0.86 0 l4.12 15 l-1.04 0 z M12.940000000000001 5.9399999999999995 l-2.26 8.68 l4.38 0 z M20.880000000000003 6.1 l0 13.9 l-1.16 0 l0 -13.9 l-3.26 0 l0 -1.1 l7.68 0 l0 1.1 l-3.26 0 z M32.480000000000004 20.18 c-1.2667 0 -2.2134 -0.33334 -2.84 -1 s-0.94 -1.6533 -0.94 -2.96 l0 -7.4 c0 -1.3333 0.31334 -2.3266 0.94 -2.98 s1.64 -0.98 3.04 -0.98 c1.32 0 2.2866 0.33 2.9 0.99 s0.92 1.6367 0.92 2.93 l0 1.08 l-1.08 0 l0 -1.28 c0 -0.33334 -0.04 -0.67 -0.12 -1.01 s-0.22334 -0.65 -0.43 -0.93 s-0.49 -0.50666 -0.85 -0.68 s-0.82 -0.26 -1.38 -0.26 s-1.0233 0.07666 -1.39 0.23 s-0.66 0.37 -0.88 0.65 s-0.37666 0.61 -0.47 0.99 s-0.14 0.79666 -0.14 1.25 l0 7.48 c0 0.46666 0.04666 0.88332 0.14 1.25 s0.25 0.67666 0.47 0.93 s0.50666 0.44668 0.86 0.58002 s0.78334 0.2 1.29 0.2 c0.56 0 1.0267 -0.07 1.4 -0.21 s0.67334 -0.33666 0.9 -0.59 s0.39 -0.56 0.49 -0.92 s0.15 -0.75334 0.15 -1.18 l0 -2.94 l-3.14 -0.02 l0 -0.98 l4.18 0.02 l0 3.78 c0 1.32 -0.30666 2.31 -0.92 2.97 s-1.6467 0.99 -3.1 0.99 z M45.10000000000001 20 l-3.3 -6.22 l-3.06 0 l0 6.22 l-0.98 0 l0 -15 l3.4 0 c0.78666 0 1.46 0.11666 2.02 0.35 s1.02 0.55 1.38 0.95 s0.62666 0.86334 0.8 1.39 s0.26 1.0767 0.26 1.65 c0 0.97334 -0.25 1.85 -0.75 2.63 s-1.1567 1.35 -1.97 1.71 l3.52 6.32 l-1.32 0 z M41.02 5.92 l-2.28 -0.000019531 l0 6.84 l2.42 0 c0.68 0 1.24 -0.10334 1.68 -0.31 s0.78334 -0.47332 1.03 -0.79998 s0.42 -0.7 0.52 -1.12 s0.15 -0.85 0.15 -1.29 c0 -0.46666 -0.08 -0.9 -0.24 -1.3 s-0.39 -0.75 -0.69 -1.05 s-0.66666 -0.53666 -1.1 -0.71 s-0.93 -0.26 -1.49 -0.26 z M47.64000000000001 20 l0 -15 l7.36 0 l0 1.16 l-6.32 0 l0 5.7 l6.26 0 l0 0.92 l-6.26 0 l0 6.06 l6.46 0 l0 1.16 l-7.5 0 z M56.540000000000006 20 l0 -15 l7.36 0 l0 1.16 l-6.32 0 l0 5.7 l6.26 0 l0 0.92 l-6.26 0 l0 6.06 l6.46 0 l0 1.16 l-7.5 0 z M72.00000000000001 20 l-3.52 -8.14 l-2.04 3.06 l0 5.08 l-1 0 l0 -15 l1 0 l0 7.9 l5.08 -7.9 l1.24 0 l-3.52 6.1 l3.92 8.9 l-1.16 0 z"></path></g><g id="SvgjsG1208" featureKey="nameLeftFeature-0" transform="matrix(2.308982882529681,0,0,2.308982882529681,95.2275427936758,36.30059414608675)" fill="#111111"><path d="M6.5 5.5 c2.4 0 4 1.6 4 4 c0 0.56 -0.1 1.1 -0.26 1.6 c-0.3 -0.2 -0.54 -0.4 -0.9 -0.54 c0.1 -0.3 0.16 -0.66 0.16 -1.06 c0 -1.8 -1.2 -3 -3 -3 l-3 0 l0 4 l3.5 0 s0.3 0 0.64 0.06 c0.2 -0.26 0.36 -0.66 0.36 -1.06 c0 -0.9 -0.6 -1.5 -1.5 -1.5 l-1.1 0 l-1.06 -1 l2.16 0 c1.5 0 2.5 1 2.5 2.5 c0 0.3 -0.04 0.56 -0.1 0.8 c-0.06 0.2 -0.1 0.36 -0.2 0.5 c1.76 0.54 2.8 2.1 2.8 4.2 c0 1.26 -0.4 2.3 -1.04 3.06 l-0.76 -0.72 c0.5 -0.6 0.8 -1.38 0.8 -2.34 c0 -2.1 -1.4 -3.5 -3.5 -3.5 l-3.5 0 l0 5.5 l3.5 0 c1.2 0 2 -0.8 2 -2 s-0.8 -2 -2 -2 l-1.6 0 l-1.06 -1 l2.66 0 c1.8 0 3 1.2 3 3 s-1.2 3 -3 3 l-4.5 0 l0 -12.5 l4 0 z M5 10 l-1 0 l0 -2.64 l1 0.98 l0 1.66 z M4 12.36 l1 1 l0 3.14 l-1 0 l0 -4.14 z M7 18.5 c0.94 0 1.74 -0.3 2.34 -0.8 l0.76 0.76 c-0.8 0.64 -1.86 1.04 -3.1 1.04 l-4.5 0 l0 -1 l4.5 0 z M22.5 11.5 l0 1 l-5.5 0 l0 4.5 l6.5 0 l0 1 l-7.5 0 l0 -12.5 l7.5 0 l0 1 l-6.5 0 l0 5 l5.5 0 z M23.5 8 l-4.6 0 l-1.06 -1 l5.66 0 l0 1 z M17.5 7.359999999999999 l1 0.98 l0 2.66 l-1 0 l0 -3.64 z M22.5 14 l-3.6 0 l-1.06 -1 l4.66 0 l0 1 z M17.5 13.36 l1 0.98 l0 2.16 l-1 0 l0 -3.14 z M23.5 19.5 l-7.5 0 l0 -1 l7.5 0 l0 1 z M36.5 6.5 l-5 0 l0 13 l-1 0 l0 -13 l-3.5 0 l0 -1 l9.5 0 l0 1 z M30 8 l-3 0 l0 -1 l3 0 l0 1 z M36.5 8 l-3.16 0 l-0.98 -1 l4.14 0 l0 1 z M33 19.5 l-1 0 l0 -12.14 l1 1.04 l0 11.1 z M38.94 19.5 l4.66 -14 l1.04 0 l-3.04 9.26 l3.44 0 l0.36 1 l-4.14 0 l-1.26 3.74 l-1.06 0 z M48.76 19.5 l-3.6 -10.8 l-1.86 5.56 l-1.06 0 l2.96 -8.76 l4.6 14 l-1.04 0 z M47.14 19.5 l-0.74 -2.24 l-3.76 0 l-0.7 -1 l4.16 0 l-1.46 -4.46 l0.52 -1.54 l3.08 9.24 l-1.1 0 z M41.56 19.5 l-1.06 0 l1.06 -3 l0.64 1 z"></path></g><g id="SvgjsG1209" featureKey="nameRightFeature-0" transform="matrix(2.082845322291534,0,0,2.082845322291534,217.83430935541693,39.127314642241636)" fill="#111111"><path d="M10.64 11.46 c0.86 0.84 1.36 2.04 1.36 3.54 c0 3 -2 5 -5 5 l-5 0 l0 -15 l4.5 0 c2.7 0 4.5 1.8 4.5 4.5 c0 0.7 -0.16 1.36 -0.36 1.96 z M7 18 c1.8 0 3 -1.2 3 -3 s-1.2 -3 -3 -3 l-2.66 0 l1.06 1 l1.6 0 c1.2 0 2 0.8 2 2 s-0.8 2 -2 2 l-3.5 0 l0 -5.5 l3.5 0 c2.1 0 3.5 1.4 3.5 3.5 c0 0.96 -0.3 1.74 -0.8 2.34 l0.76 0.72 c0.64 -0.76 1.04 -1.8 1.04 -3.06 c0 -2.1 -1.04 -3.66 -2.8 -4.2 c0.1 -0.14 0.14 -0.3 0.2 -0.5 c0.06 -0.24 0.1 -0.5 0.1 -0.8 c0 -1.5 -1 -2.5 -2.5 -2.5 l-2.16 0 l1.06 1 l1.1 0 c0.9 0 1.5 0.6 1.5 1.5 c0 0.4 -0.16 0.8 -0.36 1.06 c-0.34 -0.06 -0.64 -0.06 -0.64 -0.06 l-3.5 0 l0 -4 l3 0 c1.8 0 3 1.2 3 3 c0 0.4 -0.06 0.76 -0.16 1.06 c0.36 0.14 0.6 0.34 0.9 0.54 c0.16 -0.5 0.26 -1.04 0.26 -1.6 c0 -2.4 -1.6 -4 -4 -4 l-4 0 l0 12.5 l4.5 0 z M5 8.34 l-1 -0.98 l0 2.64 l1 0 l0 -1.66 z M7.4 10 c0.06 -0.16 0.1 -0.3 0.1 -0.5 c0 -0.6 -0.4 -1 -1 -1 l-1 0 l0 1.5 l1.9 0 z M4 16.5 l1 0 l0 -3.14 l-1 -1 l0 4.14 z M7 16.5 c0.9 0 1.5 -0.6 1.5 -1.5 s-0.6 -1.5 -1.5 -1.5 l-1.5 0 l0 3 l1.5 0 z M7 19.5 c1.24 0 2.3 -0.4 3.1 -1.04 l-0.76 -0.76 c-0.6 0.5 -1.4 0.8 -2.34 0.8 l-4.5 0 l0 1 l4.5 0 z M13.76 5 l3.98 0 l2.26 3.94 l2.24 -3.94 l4 0 l-4.6 8.1 l0 6.9 l-3.5 0 l0 -7.24 z M15.74 5.5 l-1.14 0 l4.04 7.16 l0 6.84 l1 0 l0 -6.84 l4.02 -7.16 l-1.16 0 l-3.4 5.96 z M16.34 5.5 l2.76 4.94 l0.6 -1.04 l-2.2 -3.9 l-1.16 0 z M20.14 19.5 l1 0 l0 -6.5 l4.26 -7.5 l-1.14 0 l-4.12 7.26 l0 6.74 z M31 20 l0 -11.5 l-3.5 0 l0 -3.5 l10.5 0 l0 3.5 l-3.5 0 l0 11.5 l-3.5 0 z M31.5 19.5 l1 0 l0 -13 l5 0 l0 -1 l-9.5 0 l0 1 l3.5 0 l0 13 z M31 7 l-3 0 l0 1 l3 0 l0 -1 z M37.5 7 l-4.14 0 l0.98 1 l3.16 0 l0 -1 z M34 8.4 l-1 -1.04 l0 12.14 l1 0 l0 -11.1 z M44.5 14.5 l0 2 l5 0 l0 3.5 l-8.5 0 l0 -15 l8.5 0 l0 3.5 l-5 0 l0 2.5 l4 0 l0 3.5 l-4 0 z M41.5 5.5 l0 12.5 l7.5 0 l0 -1 l-6.5 0 l0 -4.5 l5.5 0 l0 -1 l-5.5 0 l0 -5 l6.5 0 l0 -1 l-7.5 0 z M49 7 l-5.66 0 l1.06 1 l4.6 0 l0 -1 z M43 11 l1 0 l0 -2.66 l-1 -0.98 l0 3.64 z M48 13 l-4.66 0 l1.06 1 l3.6 0 l0 -1 z M43 16.5 l1 0 l0 -2.16 l-1 -0.98 l0 3.14 z M49 18.5 l-7.5 0 l0 1 l7.5 0 l0 -1 z M58.24 9.1 c0 -0.5 -0.44 -0.84 -0.98 -0.84 c-0.56 0 -1.02 0.34 -1.02 0.84 l0 0.26 c0 0.48 0.46 0.9 1.02 0.9 c2.7 0 4.74 2.1 4.74 4.9 l0 0.24 c0 2.54 -1.86 4.86 -4.74 4.86 c-2.7 0 -4.76 -2.1 -4.76 -4.86 l0 -0.5 l3.5 0 l0 0.5 c0 0.74 0.54 1.34 1.26 1.34 c0.68 0 1.24 -0.6 1.24 -1.34 l0 -0.24 c0 -0.82 -0.56 -1.42 -1.24 -1.42 c-2.56 0 -4.5 -1.88 -4.5 -4.38 l0 -0.26 c0 -2.5 1.94 -4.36 4.5 -4.36 c2.54 0 4.5 1.86 4.5 4.36 l0 0.5 l-3.52 0 l0 -0.5 z M54.5 15.4 c0 1.6 1.2 2.84 2.76 2.84 c1.54 0 2.74 -1.24 2.74 -2.84 l0 -0.24 c0 -1.66 -1.2 -2.92 -2.74 -2.92 c-1.72 0 -3 -1.24 -3 -2.88 l0 -0.26 c0 -1.6 1.28 -2.86 3 -2.86 c1.68 0 3 1.26 3 2.86 l0.98 0 c0 -2.2 -1.7 -3.84 -3.98 -3.84 c-2.32 0 -4.02 1.64 -4.02 3.84 l0 0.26 c0 2.2 1.7 3.9 4.02 3.9 c0.98 0 1.74 0.78 1.74 1.9 l0 0.24 c0 1.04 -0.76 1.86 -1.74 1.86 c-1.02 0 -1.76 -0.82 -1.76 -1.86 l-1 0 z M57.26 7.74 c0.84 0 1.5 0.6 1.5 1.36 l0.98 0 c0 -1.36 -1.1 -2.34 -2.48 -2.34 c-0.56 0 -1.26 0.24 -1.66 0.54 l0.76 0.7 c0.18 -0.14 0.54 -0.26 0.9 -0.26 z M55.76 9.1 c0 -0.16 0.08 -0.46 0.24 -0.7 l-0.76 -0.74 c-0.3 0.34 -0.5 0.98 -0.5 1.44 l0 0.26 c0 1.34 1.1 2.4 2.52 2.4 c1.84 0 3.24 1.44 3.24 3.4 l0 0.24 c0 0.66 -0.4 1.64 -0.9 2.3 l0.74 0.7 c0.66 -0.8 1.16 -1.84 1.16 -3 l0 -0.24 c0 -2.5 -1.84 -4.42 -4.24 -4.42 c-0.86 0 -1.5 -0.6 -1.5 -1.38 l0 -0.26 z M53 15.4 c0 2.5 1.86 4.34 4.26 4.34 c0.94 0 2.1 -0.38 2.74 -0.94 l-0.76 -0.74 c-0.44 0.4 -1.3 0.7 -1.98 0.7 c-1.86 0 -3.26 -1.46 -3.26 -3.36 l-1 0 z"></path></g>
			</g>
		</svg>
	